<svg id="OBJECT" height="512" viewBox="0 0 512 512" width="512" xmlns="http://www.w3.org/2000/svg"><path d="m457 0h-281a55.06 55.06 0 0 0 -55 55v66h-66a55.06 55.06 0 0 0 -55 55v260.5a75.59 75.59 0 0 0 75.5 75.5h341.5a95.11 95.11 0 0 0 95-95v-362a55.06 55.06 0 0 0 -55-55zm-427 436.5v-260.5a25 25 0 0 1 25-25h66v285.5a45.5 45.5 0 0 1 -91 0zm452-19.5a65.08 65.08 0 0 1 -65 65h-281.3a75.07 75.07 0 0 0 15.3-45.5v-381.5a25 25 0 0 1 25-25h281a25 25 0 0 1 25 25z"/><path d="m206.5 171h140a15 15 0 0 0 0-30h-140a15 15 0 0 0 0 30z"/><path d="m426.5 235.12h-220a15 15 0 0 0 0 30h220a15 15 0 0 0 0-30z"/><path d="m426.5 341h-220a15 15 0 0 0 0 30h220a15 15 0 0 0 0-30z"/></svg>